<mxfile host="Electron" agent="Mozilla/5.0 (X11; Linux x86_64) AppleWebKit/537.36 (KHTML, like Gecko) draw.io/24.7.5 Chrome/126.0.6478.183 Electron/31.3.0 Safari/537.36" version="24.7.5">
  <diagram name="Page-1" id="e7e014a7-5840-1c2e-5031-d8a46d1fe8dd">
    <mxGraphModel dx="1447" dy="660" grid="1" gridSize="10" guides="1" tooltips="1" connect="1" arrows="1" fold="1" page="1" pageScale="1" pageWidth="1169" pageHeight="826" background="none" math="0" shadow="0">
      <root>
        <mxCell id="0" />
        <mxCell id="1" parent="0" />
        <mxCell id="k6cZZmElNovZcna5VsuX-42" value="USER" style="swimlane;whiteSpace=wrap" vertex="1" parent="1">
          <mxGeometry x="494.5" y="178" width="280" height="682" as="geometry" />
        </mxCell>
        <mxCell id="k6cZZmElNovZcna5VsuX-43" style="edgeStyle=orthogonalEdgeStyle;rounded=0;orthogonalLoop=1;jettySize=auto;html=1;" edge="1" parent="k6cZZmElNovZcna5VsuX-42" source="k6cZZmElNovZcna5VsuX-44" target="k6cZZmElNovZcna5VsuX-46">
          <mxGeometry relative="1" as="geometry" />
        </mxCell>
        <mxCell id="k6cZZmElNovZcna5VsuX-44" value="" style="ellipse;shape=startState;fillColor=#000000;strokeColor=#ff0000;" vertex="1" parent="k6cZZmElNovZcna5VsuX-42">
          <mxGeometry x="125" y="40" width="30" height="30" as="geometry" />
        </mxCell>
        <mxCell id="k6cZZmElNovZcna5VsuX-45" style="edgeStyle=orthogonalEdgeStyle;rounded=0;orthogonalLoop=1;jettySize=auto;html=1;" edge="1" parent="k6cZZmElNovZcna5VsuX-42" source="k6cZZmElNovZcna5VsuX-46" target="k6cZZmElNovZcna5VsuX-53">
          <mxGeometry relative="1" as="geometry" />
        </mxCell>
        <mxCell id="k6cZZmElNovZcna5VsuX-46" value="Select build to &#xa;clone" style="rounded=1;" vertex="1" parent="k6cZZmElNovZcna5VsuX-42">
          <mxGeometry x="85" y="102" width="110" height="50" as="geometry" />
        </mxCell>
        <mxCell id="k6cZZmElNovZcna5VsuX-47" style="edgeStyle=orthogonalEdgeStyle;rounded=0;orthogonalLoop=1;jettySize=auto;html=1;" edge="1" parent="k6cZZmElNovZcna5VsuX-42">
          <mxGeometry relative="1" as="geometry">
            <mxPoint x="140" y="412" as="targetPoint" />
          </mxGeometry>
        </mxCell>
        <mxCell id="k6cZZmElNovZcna5VsuX-48" style="edgeStyle=orthogonalEdgeStyle;rounded=0;orthogonalLoop=1;jettySize=auto;html=1;" edge="1" parent="k6cZZmElNovZcna5VsuX-42">
          <mxGeometry relative="1" as="geometry">
            <mxPoint x="140" y="482" as="targetPoint" />
          </mxGeometry>
        </mxCell>
        <mxCell id="k6cZZmElNovZcna5VsuX-49" style="edgeStyle=orthogonalEdgeStyle;rounded=0;orthogonalLoop=1;jettySize=auto;html=1;" edge="1" parent="k6cZZmElNovZcna5VsuX-42" source="k6cZZmElNovZcna5VsuX-51" target="k6cZZmElNovZcna5VsuX-54">
          <mxGeometry relative="1" as="geometry" />
        </mxCell>
        <mxCell id="k6cZZmElNovZcna5VsuX-50" value="No" style="edgeLabel;html=1;align=center;verticalAlign=middle;resizable=0;points=[];" vertex="1" connectable="0" parent="k6cZZmElNovZcna5VsuX-49">
          <mxGeometry x="-0.3494" relative="1" as="geometry">
            <mxPoint as="offset" />
          </mxGeometry>
        </mxCell>
        <mxCell id="k6cZZmElNovZcna5VsuX-51" value="Confirm&lt;div&gt;clone?&lt;/div&gt;" style="rhombus;whiteSpace=wrap;html=1;" vertex="1" parent="k6cZZmElNovZcna5VsuX-42">
          <mxGeometry x="90" y="272" width="100" height="70" as="geometry" />
        </mxCell>
        <mxCell id="k6cZZmElNovZcna5VsuX-52" style="edgeStyle=orthogonalEdgeStyle;rounded=0;orthogonalLoop=1;jettySize=auto;html=1;" edge="1" parent="k6cZZmElNovZcna5VsuX-42" source="k6cZZmElNovZcna5VsuX-53" target="k6cZZmElNovZcna5VsuX-51">
          <mxGeometry relative="1" as="geometry" />
        </mxCell>
        <mxCell id="k6cZZmElNovZcna5VsuX-53" value="Press clone button" style="rounded=1;" vertex="1" parent="k6cZZmElNovZcna5VsuX-42">
          <mxGeometry x="85" y="182" width="110" height="50" as="geometry" />
        </mxCell>
        <mxCell id="k6cZZmElNovZcna5VsuX-54" value="" style="ellipse;html=1;shape=endState;fillColor=#000000;strokeColor=#ff0000;" vertex="1" parent="k6cZZmElNovZcna5VsuX-42">
          <mxGeometry x="235.5" y="292" width="30" height="30" as="geometry" />
        </mxCell>
        <mxCell id="k6cZZmElNovZcna5VsuX-55" value="WEB" style="swimlane;whiteSpace=wrap" vertex="1" parent="1">
          <mxGeometry x="774.5" y="178" width="280" height="682" as="geometry" />
        </mxCell>
        <mxCell id="k6cZZmElNovZcna5VsuX-56" style="edgeStyle=orthogonalEdgeStyle;rounded=0;orthogonalLoop=1;jettySize=auto;html=1;" edge="1" parent="k6cZZmElNovZcna5VsuX-55" source="k6cZZmElNovZcna5VsuX-57" target="k6cZZmElNovZcna5VsuX-58">
          <mxGeometry relative="1" as="geometry" />
        </mxCell>
        <mxCell id="k6cZZmElNovZcna5VsuX-57" value="Show missing build&#xa;error" style="rounded=1;" vertex="1" parent="k6cZZmElNovZcna5VsuX-55">
          <mxGeometry x="85" y="462" width="110" height="50" as="geometry" />
        </mxCell>
        <mxCell id="k6cZZmElNovZcna5VsuX-58" value="" style="ellipse;html=1;shape=endState;fillColor=#000000;strokeColor=#ff0000;" vertex="1" parent="k6cZZmElNovZcna5VsuX-55">
          <mxGeometry x="125" y="562" width="30" height="30" as="geometry" />
        </mxCell>
        <mxCell id="k6cZZmElNovZcna5VsuX-59" value="SERVER" style="swimlane;whiteSpace=wrap;startSize=23;" vertex="1" parent="1">
          <mxGeometry x="1054.5" y="178" width="280" height="682" as="geometry" />
        </mxCell>
        <mxCell id="k6cZZmElNovZcna5VsuX-60" style="edgeStyle=orthogonalEdgeStyle;rounded=0;orthogonalLoop=1;jettySize=auto;html=1;" edge="1" parent="k6cZZmElNovZcna5VsuX-59" source="k6cZZmElNovZcna5VsuX-61" target="k6cZZmElNovZcna5VsuX-64">
          <mxGeometry relative="1" as="geometry" />
        </mxCell>
        <mxCell id="k6cZZmElNovZcna5VsuX-61" value="Find build in &#xa;database" style="rounded=1;" vertex="1" parent="k6cZZmElNovZcna5VsuX-59">
          <mxGeometry x="85" y="362" width="110" height="50" as="geometry" />
        </mxCell>
        <mxCell id="k6cZZmElNovZcna5VsuX-62" style="edgeStyle=orthogonalEdgeStyle;rounded=0;orthogonalLoop=1;jettySize=auto;html=1;" edge="1" parent="k6cZZmElNovZcna5VsuX-59" source="k6cZZmElNovZcna5VsuX-64" target="k6cZZmElNovZcna5VsuX-66">
          <mxGeometry relative="1" as="geometry" />
        </mxCell>
        <mxCell id="k6cZZmElNovZcna5VsuX-63" value="Yes" style="edgeLabel;html=1;align=center;verticalAlign=middle;resizable=0;points=[];" vertex="1" connectable="0" parent="k6cZZmElNovZcna5VsuX-62">
          <mxGeometry x="-0.8087" relative="1" as="geometry">
            <mxPoint as="offset" />
          </mxGeometry>
        </mxCell>
        <mxCell id="k6cZZmElNovZcna5VsuX-64" value="Build&amp;nbsp;&lt;div&gt;exists?&lt;/div&gt;" style="rhombus;whiteSpace=wrap;html=1;" vertex="1" parent="k6cZZmElNovZcna5VsuX-59">
          <mxGeometry x="90" y="452" width="100" height="70" as="geometry" />
        </mxCell>
        <mxCell id="k6cZZmElNovZcna5VsuX-65" style="edgeStyle=orthogonalEdgeStyle;rounded=0;orthogonalLoop=1;jettySize=auto;html=1;" edge="1" parent="k6cZZmElNovZcna5VsuX-59" source="k6cZZmElNovZcna5VsuX-66" target="k6cZZmElNovZcna5VsuX-67">
          <mxGeometry relative="1" as="geometry" />
        </mxCell>
        <mxCell id="k6cZZmElNovZcna5VsuX-66" value="Clone build to &#xa;user profile" style="rounded=1;" vertex="1" parent="k6cZZmElNovZcna5VsuX-59">
          <mxGeometry x="85" y="562" width="110" height="50" as="geometry" />
        </mxCell>
        <mxCell id="k6cZZmElNovZcna5VsuX-67" value="" style="ellipse;html=1;shape=endState;fillColor=#000000;strokeColor=#ff0000;" vertex="1" parent="k6cZZmElNovZcna5VsuX-59">
          <mxGeometry x="125" y="638" width="30" height="30" as="geometry" />
        </mxCell>
        <mxCell id="k6cZZmElNovZcna5VsuX-68" style="edgeStyle=orthogonalEdgeStyle;rounded=0;orthogonalLoop=1;jettySize=auto;html=1;entryX=0;entryY=0.5;entryDx=0;entryDy=0;exitX=0.5;exitY=1;exitDx=0;exitDy=0;" edge="1" parent="1" source="k6cZZmElNovZcna5VsuX-51" target="k6cZZmElNovZcna5VsuX-61">
          <mxGeometry relative="1" as="geometry" />
        </mxCell>
        <mxCell id="k6cZZmElNovZcna5VsuX-69" value="Yes" style="edgeLabel;html=1;align=center;verticalAlign=middle;resizable=0;points=[];" vertex="1" connectable="0" parent="k6cZZmElNovZcna5VsuX-68">
          <mxGeometry x="-0.9443" y="-2" relative="1" as="geometry">
            <mxPoint as="offset" />
          </mxGeometry>
        </mxCell>
        <mxCell id="k6cZZmElNovZcna5VsuX-70" style="edgeStyle=orthogonalEdgeStyle;rounded=0;orthogonalLoop=1;jettySize=auto;html=1;" edge="1" parent="1" source="k6cZZmElNovZcna5VsuX-64" target="k6cZZmElNovZcna5VsuX-57">
          <mxGeometry relative="1" as="geometry" />
        </mxCell>
        <mxCell id="k6cZZmElNovZcna5VsuX-71" value="No" style="edgeLabel;html=1;align=center;verticalAlign=middle;resizable=0;points=[];" vertex="1" connectable="0" parent="k6cZZmElNovZcna5VsuX-70">
          <mxGeometry x="-0.7387" relative="1" as="geometry">
            <mxPoint as="offset" />
          </mxGeometry>
        </mxCell>
      </root>
    </mxGraphModel>
  </diagram>
</mxfile>
